<svg width="512" height="512" viewBox="0 0 95 73" fill="none" xmlns="http://www.w3.org/2000/svg">
<path d="M299.558 89.0881C297.51 87.0401 294.95 86.0161 292.39 86.0161C289.83 86.0161 287.27 87.0401 285.222 89.0881L53.7976 321.024C49.7016 325.12 49.7016 331.264 53.7976 335.36L125.478 407.04C127.526 409.088 130.086 410.112 132.646 410.112C135.206 410.112 137.766 409.088 139.814 407.04L371.238 175.616C375.334 171.52 375.334 165.376 371.238 161.28L299.558 89.0881ZM132.646 378.368L82.4696 328.192L292.39 118.272L342.566 168.448L132.646 378.368Z"/>
<path d="M452.134 51.712L409.126 8.704C402.982 3.072 395.302 0 387.622 0C379.942 0 371.75 3.072 366.118 9.216L311.846 62.464C305.702 68.608 305.702 78.336 311.846 83.968L376.358 148.48C379.43 151.552 383.526 153.088 387.11 153.088C390.694 153.088 394.79 151.552 397.862 148.48L451.622 94.72C463.91 82.944 463.91 63.488 452.134 51.712ZM433.702 77.312L387.11 123.904L336.934 73.728L383.526 27.136C384.55 26.112 386.086 25.6 387.11 25.6C388.134 25.6 389.67 26.112 390.694 27.136L433.702 70.144C435.75 71.68 435.75 75.264 433.702 77.312Z"/>
<path d="M52.2615 349.696C48.1655 345.6 43.0455 343.552 37.9255 343.552C28.7095 343.552 20.0055 349.696 17.9575 359.424L0.549485 435.712C-2.52252 449.024 7.71749 460.8 20.5175 460.8C22.0535 460.8 23.5895 460.8 25.1255 460.288L101.413 442.88C117.285 439.296 122.917 419.84 111.141 408.576L52.2615 349.696ZM27.1735 433.664L40.9975 374.272L86.5655 419.84L27.1735 433.664Z"/>
</svg>
